<?xml version="1.0" encoding="UTF-8"?>
<svg id="Layer_1" data-name="Layer 1" xmlns="http://www.w3.org/2000/svg" width="500" height="500" xmlns:xlink="http://www.w3.org/1999/xlink" viewBox="0 0 500 500">
  <defs>
    <radialGradient id="radial-gradient" cx="411" cy="398.59" fx="411" fy="398.59" r="1960.45" gradientUnits="userSpaceOnUse">
      <stop offset="0" stop-color="#fcae4d"/>
      <stop offset=".54" stop-color="#fcae4e"/>
      <stop offset=".73" stop-color="#fcb255"/>
      <stop offset=".87" stop-color="#fcb761"/>
      <stop offset=".98" stop-color="#fdbf72"/>
      <stop offset="1" stop-color="#fec176"/>
    </radialGradient>
    <radialGradient id="radial-gradient-2" cx="250" cy="250" fx="250" fy="250" r="250.5" gradientUnits="userSpaceOnUse">
      <stop offset="0" stop-color="#fcae4d"/>
      <stop offset=".54" stop-color="#fcae4e"/>
      <stop offset=".73" stop-color="#fcb255"/>
      <stop offset=".87" stop-color="#fcb761"/>
      <stop offset=".98" stop-color="#fdbf72"/>
      <stop offset="1" stop-color="#fec176"/>
    </radialGradient>
  </defs>
  <rect width="500" height="500" rx="66.42" ry="66.42" style="fill: url(#radial-gradient); stroke: url(#radial-gradient-2); stroke-miterlimit: 10;"/>
  <path d="M440.66,80.3c2.84,3.33,3.45,7.01,1.82,11.03l-97.91,230.77c-1.25,2.9-3.48,4.85-6.7,5.84-1.66.48-3.38.51-5.15.08-1.15-.28-2.34-.84-3.57-1.69l-63.93-46.01-48.98,37.06c-2.46,1.95-5.3,2.53-8.54,1.75-1.36-.33-2.45-.81-3.29-1.45-1.81-1.21-3.1-2.82-3.89-4.83s-.93-4.06-.43-6.15l13.14-54.62,175.11-133.21-202.14,104.52-55.72-40.23c-3.51-2.39-4.91-5.76-4.19-10.11.8-4.22,3.21-6.9,7.23-8.03l296.59-87.6c1.79-.56,3.57-.63,5.35-.2,2.09.5,3.83,1.53,5.22,3.08Z"/>
  <g>
    <path d="M96.55,297.02c9.2,3.64,12.59,10.6,11.89,20.16-.33,4.51.03,9.07-.08,13.6-.23,9.39-6.48,15.65-15.86,15.82-6.1.11-12.2.12-18.29,0-9.04-.19-15.16-6.09-15.52-15.2-.25-6.37-.11-12.75-.03-19.13.1-7.84,4.98-12.17,11.47-15.25h26.42ZM94.88,322.07c0-2.69-.1-5.39.03-8.08.13-2.58-.95-3.61-3.5-3.51-2.83.11-5.67.02-8.51.02q-10.94,0-10.94,10.97,0,11.88,11.84,11.88,11.09,0,11.08-11.28Z"/>
    <path d="M144.28,467.41c-7.88-7.74-15.84-15.41-23.6-23.26-2.79-2.82-2.8-6.3-.03-9.17,7.02-7.23,14.16-14.35,21.39-21.37,2.7-2.62,6.74-2.42,9.23,0,2.55,2.48,2.86,6.41.26,9.21-2.86,3.08-6.09,5.82-9.17,8.7.19.32.37.64.56.96,4.57,0,9.19.39,13.7-.13,3.29-.38,4.88-3.19,5.01-6.51.11-2.84-.06-5.68.11-8.51.25-4.14,2.97-6.9,6.61-6.94,3.84-.04,6.56,2.85,6.67,7.24.08,3.12.1,6.25-.03,9.37-.43,10.33-8.87,18.76-19.21,19.13-4.34.16-8.68.03-13.02.03-.21.36-.42.72-.63,1.07,2.54,2.38,5.14,4.7,7.6,7.15,5.17,5.14,4.79,8.93-1.2,13.03h-4.26Z"/>
    <path d="M58.64,438.88c0-3.26-.15-6.53.03-9.78.49-8.76,6.51-14.8,15.3-15.11,6.37-.23,12.77-.25,19.14,0,8.85.36,15.03,6.78,15.24,15.66.15,6.09.14,12.19,0,18.29-.2,8.91-6.26,15.3-15.17,15.72-6.37.3-12.77.26-19.14.02-9.02-.34-14.98-6.43-15.39-15.46-.14-3.11-.02-6.24-.02-9.36,0,0,0,0,.01,0Z"/>
    <path d="M83.7,355.61c3.12,0,6.24-.09,9.36.02,8.51.29,14.83,6.18,15.23,14.66.32,6.65.3,13.33.01,19.98-.37,8.6-6.88,14.76-15.48,14.93-6.24.12-12.48.12-18.71,0-8.49-.16-14.88-6.04-15.33-14.53-.36-6.78-.36-13.61-.03-20.4.42-8.64,6.55-14.36,15.17-14.64,3.26-.11,6.52-.02,9.78-.01ZM94.88,380.46c0-2.7-.1-5.4.03-8.09.13-2.62-1.12-3.54-3.57-3.52-5.25.05-10.5.07-15.75,0-2.81-.04-3.77,1.31-3.65,3.94.11,2.55.02,5.11.02,7.66q0,11.29,11.49,11.29t11.43-11.27Z"/>
    <path d="M190.57,372.09c-.5.61-1.35,2.07-2.56,3.06-3.26,2.65-3.42,6.05,0,8.43,3.61,2.5,2.9,5.31,1.13,8.48-1.85,3.31-4.06,4.92-7.94,2.92-3.19-1.64-5.88.15-6.25,3.85-.44,4.44-2.6,6.28-7.37,6.29-4.55,0-5.88-1.25-6.35-6.01-.35-3.57-3.91-5.67-7.2-4.27-4.29,1.83-5.74,1.3-8.17-2.98-2.48-4.36-2.23-5.73,1.57-8.56,2.8-2.08,2.72-5.8-.15-7.93-3.68-2.74-3.85-4.17-1.35-8.61,1.84-3.26,3.97-5.03,7.9-3.02,3.48,1.78,7.01-.27,7.32-4.27.21-2.75,1.53-3.77,4.06-3.74,1.85.02,3.69-.02,5.54.03,2.98.08,4.16,1.64,4.25,4.63.1,3.3,2.84,4.87,5.75,3.63,4.86-2.07,9.97,1.58,9.82,8.06ZM167.68,372.12c-4.42-.12-8.14,3.46-8.28,7.95-.14,4.59,3.2,8.22,7.73,8.4,4.66.19,8.58-3.48,8.61-8.06.03-4.33-3.71-8.18-8.06-8.29Z"/>
    <path d="M142.4,315.1c3.83,0,7.66-.05,11.48,0,12.54.2,21.05,8.71,21.18,21.16.03,2.41.11,4.83-.06,7.22-.28,3.83-2.63,5.88-6.31,6.24-3.3.32-6.32-2.2-6.77-5.72-.32-2.51-.13-5.09-.24-7.63-.22-5.27-2.69-7.75-7.97-7.79-7.94-.07-15.88.01-23.82-.03-5.12-.03-7.98-2.51-7.93-6.77.04-4.09,2.8-6.55,7.68-6.66,4.25-.09,8.51-.02,12.76-.02Z"/>
    <path d="M94.88,322.07q0,11.28-11.09,11.28-11.84,0-11.84-11.88,0-10.97,10.94-10.97c2.84,0,5.68.09,8.51-.02,2.55-.1,3.62.93,3.5,3.51-.13,2.69-.03,5.39-.03,8.08Z" style="fill: none; stroke: #000; stroke-miterlimit: 10; stroke-width: .68px;"/>
    <path d="M94.88,380.46q0,11.27-11.43,11.27t-11.49-11.29c0-2.55.09-5.11-.02-7.66-.11-2.63.84-3.98,3.65-3.94,5.25.08,10.5.06,15.75,0,2.45-.02,3.69.9,3.57,3.52-.13,2.69-.03,5.39-.03,8.09Z" style="fill: none; stroke: #000; stroke-miterlimit: 10; stroke-width: .68px;"/>
    <path d="M167.68,372.12c4.35.12,8.09,3.97,8.06,8.29-.03,4.58-3.95,8.24-8.61,8.06-4.53-.18-7.87-3.81-7.73-8.4.14-4.49,3.86-8.07,8.28-7.95Z" style="fill: none; stroke: #000; stroke-miterlimit: 10; stroke-width: .68px;"/>
  </g>
</svg>